<svg xmlns="http://www.w3.org/2000/svg" xmlns:xlink="http://www.w3.org/1999/xlink" width="400" zoomAndPan="magnify" viewBox="0 0 300 299.999988" height="400" preserveAspectRatio="xMidYMid meet" version="1.0"><defs><clipPath id="f43bbb78c3"><path d="M 38.847656 37.894531 L 165.476562 37.894531 L 165.476562 142.753906 L 38.847656 142.753906 Z M 38.847656 37.894531 " clip-rule="nonzero"/></clipPath></defs><path fill="#a5a6a8" d="M 154.222656 173.277344 C 151.320312 173.277344 148.976562 173.136719 147.195312 172.851562 C 146 172.636719 145.019531 172.328125 144.25 171.925781 C 143.476562 171.519531 142.886719 170.988281 142.480469 170.324219 C 142.078125 169.65625 141.863281 168.851562 141.84375 167.898438 C 141.816406 167.777344 141.804688 167.65625 141.804688 167.539062 C 141.804688 166.679688 141.921875 165.691406 142.15625 164.574219 L 146.15625 145.316406 L 159.886719 145.316406 L 156.359375 162.257812 C 156.308594 162.476562 156.285156 162.667969 156.285156 162.832031 C 156.285156 163.496094 156.621094 163.886719 157.285156 164.007812 L 169.304688 164.007812 L 171.40625 153.90625 C 171.671875 152.601562 172.042969 151.464844 172.519531 150.5 C 172.992188 149.539062 173.59375 148.726562 174.3125 148.066406 C 175.042969 147.398438 175.90625 146.875 176.90625 146.492188 C 177.90625 146.109375 179.082031 145.832031 180.433594 145.667969 C 180.699219 145.648438 181.097656 145.621094 181.628906 145.582031 C 182.167969 145.546875 182.910156 145.515625 183.859375 145.492188 C 184.808594 145.46875 186.019531 145.445312 187.480469 145.425781 C 188.945312 145.402344 190.742188 145.382812 192.878906 145.371094 C 195.019531 145.359375 197.546875 145.347656 200.460938 145.332031 C 203.375 145.320312 206.757812 145.316406 210.609375 145.316406 L 206.722656 164.007812 L 210.582031 164.007812 L 208.65625 173.277344 L 190.988281 173.277344 L 194.878906 154.519531 L 192.238281 154.519531 C 191.789062 154.519531 191.210938 154.527344 190.507812 154.539062 C 189.808594 154.550781 189.121094 154.5625 188.445312 154.574219 C 187.761719 154.589844 187.15625 154.601562 186.621094 154.613281 C 186.085938 154.617188 185.761719 154.632812 185.648438 154.65625 C 185.238281 154.730469 184.925781 155.292969 184.710938 156.332031 L 181.183594 173.277344 Z M 178.898438 184.15625 L 165.101562 184.15625 L 166.804688 175.917969 L 180.609375 175.917969 Z M 162.203125 184.15625 L 148.40625 184.15625 L 150.109375 175.917969 L 163.917969 175.917969 Z M 162.203125 184.15625 " fill-opacity="1" fill-rule="nonzero"/><path fill="#a5a6a8" d="M 209.863281 164.007812 L 214.640625 164.007812 L 216.816406 153.90625 C 217.078125 152.601562 217.441406 151.464844 217.917969 150.5 C 218.394531 149.539062 218.992188 148.726562 219.714844 148.066406 C 220.441406 147.398438 221.308594 146.875 222.308594 146.492188 C 223.308594 146.109375 224.484375 145.832031 225.835938 145.667969 C 226.667969 145.550781 227.632812 145.464844 228.726562 145.40625 C 229.820312 145.347656 231.050781 145.316406 232.402344 145.316406 L 261.1875 145.316406 L 257.085938 164.648438 C 256.800781 165.980469 256.429688 167.125 255.964844 168.074219 C 255.503906 169.027344 254.902344 169.832031 254.160156 170.5 C 253.425781 171.167969 252.558594 171.699219 251.558594 172.09375 C 250.558594 172.480469 249.382812 172.78125 248.03125 172.992188 C 247.265625 173.117188 246.328125 173.195312 245.226562 173.230469 C 244.117188 173.265625 242.855469 173.277344 241.429688 173.277344 L 207.964844 173.277344 Z M 234.4375 154.519531 C 233.535156 154.519531 232.804688 154.53125 232.242188 154.554688 C 231.679688 154.582031 231.28125 154.617188 231.050781 154.65625 C 230.640625 154.730469 230.332031 155.292969 230.125 156.332031 L 228.800781 162.332031 C 228.730469 162.667969 228.695312 162.941406 228.695312 163.148438 C 228.695312 163.414062 228.753906 163.605469 228.875 163.722656 C 229.089844 163.914062 229.609375 164.03125 230.4375 164.074219 L 239.429688 164.074219 C 241.738281 164.074219 243.03125 163.898438 243.316406 163.546875 C 243.484375 163.332031 243.636719 162.925781 243.78125 162.332031 L 245.457031 154.519531 Z M 247.59375 142.675781 L 233.800781 142.675781 L 235.503906 134.433594 L 249.308594 134.433594 Z M 247.59375 142.675781 " fill-opacity="1" fill-rule="nonzero"/><g clip-path="url(#f43bbb78c3)"><path fill="#cc8253" d="M 165.242188 142.671875 L 139.644531 142.671875 L 109.589844 90.214844 L 139.5625 37.894531 L 165.160156 37.894531 L 135.1875 90.214844 Z M 61.355469 90.195312 L 74 112.28125 L 99.597656 112.28125 L 86.953125 90.195312 Z M 113.75 37.894531 L 38.878906 37.894531 L 38.878906 142.671875 L 61.136719 142.671875 L 61.136719 60.066406 L 126.46875 60.066406 Z M 113.75 37.894531 " fill-opacity="1" fill-rule="nonzero"/></g><path fill="#a5a6a8" d="M 40.683594 208.453125 L 85.386719 208.480469 L 85.960938 205.730469 C 86 205.527344 86.015625 205.34375 86.015625 205.183594 C 86.015625 204.558594 85.765625 204.117188 85.265625 203.851562 C 85.082031 203.753906 84.785156 203.6875 84.378906 203.65625 C 83.976562 203.625 83.480469 203.609375 82.898438 203.609375 L 45.953125 203.609375 L 47.617188 195.703125 L 47.65625 195.703125 L 78.542969 182.925781 L 80.535156 188.765625 L 63.636719 195.703125 L 87.988281 195.703125 C 89.179688 195.703125 90.222656 195.730469 91.117188 195.785156 C 92.019531 195.835938 92.78125 195.910156 93.40625 196.007812 C 94.5 196.152344 95.40625 196.382812 96.128906 196.703125 C 96.855469 197.023438 97.417969 197.46875 97.8125 198.035156 C 98.207031 198.605469 98.4375 199.289062 98.5 200.089844 C 98.515625 200.277344 98.527344 200.449219 98.527344 200.609375 C 98.527344 201.320312 98.425781 202.117188 98.222656 202.996094 L 97.101562 208.453125 L 100.554688 208.453125 L 98.925781 216.320312 L 39.054688 216.320312 Z M 40.683594 208.453125 " fill-opacity="1" fill-rule="nonzero"/><path fill="#a5a6a8" d="M 120.320312 206.96875 C 120.28125 207.132812 120.265625 207.28125 120.265625 207.425781 C 120.265625 208.011719 120.554688 208.375 121.144531 208.515625 L 128.652344 208.515625 L 127.015625 216.320312 L 122.921875 216.320312 C 119.496094 216.320312 117.488281 215.550781 116.902344 213.996094 C 116.050781 215.128906 114.40625 215.84375 111.96875 216.144531 C 111.542969 216.226562 110.882812 216.277344 109.996094 216.292969 C 109.105469 216.3125 107.976562 216.320312 106.605469 216.320312 L 98.246094 216.320312 L 99.847656 208.515625 L 100.699219 208.515625 C 101.125 208.515625 101.601562 208.511719 102.132812 208.496094 C 102.671875 208.488281 103.226562 208.476562 103.800781 208.46875 C 104.375 208.457031 104.902344 208.449219 105.382812 208.441406 C 105.871094 208.429688 106.277344 208.425781 106.605469 208.425781 C 106.925781 208.425781 107.097656 208.414062 107.117188 208.394531 C 107.941406 208.230469 108.449219 207.734375 108.632812 206.90625 L 111.597656 192.582031 L 123.320312 192.582031 Z M 131.105469 190.339844 L 119.382812 190.339844 L 120.839844 183.351562 L 132.558594 183.351562 Z M 116.929688 190.339844 L 105.207031 190.339844 L 106.664062 183.351562 L 118.382812 183.351562 Z M 116.929688 190.339844 " fill-opacity="1" fill-rule="nonzero"/><path fill="#a5a6a8" d="M 148.085938 216.320312 C 144.65625 216.320312 142.644531 215.550781 142.058594 213.996094 C 141.210938 215.128906 139.570312 215.84375 137.125 216.144531 C 136.699219 216.226562 136.042969 216.277344 135.152344 216.292969 C 134.261719 216.3125 133.132812 216.320312 131.761719 216.320312 L 126.761719 216.320312 L 128.375 208.515625 C 128.617188 208.515625 128.945312 208.511719 129.367188 208.496094 C 129.792969 208.488281 130.210938 208.476562 130.625 208.46875 C 131.035156 208.457031 131.40625 208.449219 131.726562 208.441406 C 132.054688 208.429688 132.238281 208.414062 132.28125 208.394531 C 133.109375 208.230469 133.609375 207.734375 133.792969 206.90625 L 135.246094 199.886719 C 135.46875 198.792969 135.777344 197.839844 136.179688 197.027344 C 136.585938 196.207031 137.101562 195.515625 137.726562 194.953125 C 138.355469 194.382812 139.09375 193.933594 139.941406 193.601562 C 140.785156 193.265625 141.773438 193.03125 142.910156 192.886719 C 143.578125 192.789062 144.382812 192.714844 145.328125 192.664062 C 146.277344 192.609375 147.359375 192.582031 148.570312 192.582031 L 162.382812 192.582031 C 163.449219 192.582031 164.40625 192.609375 165.253906 192.664062 C 166.105469 192.714844 166.882812 192.789062 167.585938 192.886719 C 168.71875 193.03125 169.660156 193.265625 170.421875 193.589844 C 171.179688 193.914062 171.765625 194.351562 172.179688 194.90625 C 172.59375 195.460938 172.839844 196.140625 172.921875 196.941406 L 172.921875 197.554688 C 172.921875 198.238281 172.828125 199.015625 172.644531 199.886719 L 170.734375 208.996094 C 170.496094 210.128906 170.175781 211.097656 169.78125 211.90625 C 169.386719 212.714844 168.878906 213.402344 168.253906 213.96875 C 167.628906 214.53125 166.894531 214.980469 166.042969 215.3125 C 165.195312 215.644531 164.199219 215.902344 163.050781 216.082031 C 162.402344 216.1875 161.609375 216.253906 160.671875 216.285156 C 159.730469 216.308594 158.65625 216.320312 157.441406 216.320312 Z M 145.484375 206.96875 C 145.441406 207.132812 145.421875 207.28125 145.421875 207.425781 C 145.421875 208.011719 145.710938 208.375 146.300781 208.515625 L 155.746094 208.515625 C 157.707031 208.515625 158.808594 208.367188 159.050781 208.0625 C 159.191406 207.878906 159.320312 207.53125 159.441406 207.027344 L 160.503906 201.941406 C 160.542969 201.765625 160.558594 201.605469 160.558594 201.460938 C 160.558594 200.894531 160.285156 200.539062 159.746094 200.394531 L 148.542969 200.394531 C 147.394531 200.457031 146.726562 200.976562 146.542969 201.941406 Z M 145.484375 206.96875 " fill-opacity="1" fill-rule="nonzero"/><path fill="#a5a6a8" d="M 174.246094 208.453125 L 200.710938 208.453125 L 201.921875 202.582031 C 201.960938 202.378906 201.980469 202.1875 201.980469 202.007812 C 201.980469 201.394531 201.730469 200.960938 201.230469 200.703125 C 200.902344 200.542969 200.121094 200.460938 198.894531 200.460938 L 179.183594 200.460938 L 180.8125 192.554688 L 203.953125 192.554688 C 205.140625 192.554688 206.183594 192.578125 207.082031 192.628906 C 207.980469 192.679688 208.757812 192.753906 209.40625 192.859375 C 210.492188 193.003906 211.398438 193.234375 212.128906 193.554688 C 212.855469 193.875 213.410156 194.320312 213.792969 194.886719 C 214.175781 195.457031 214.40625 196.140625 214.488281 196.941406 L 214.488281 197.554688 C 214.488281 198.21875 214.398438 198.988281 214.21875 199.851562 L 212.433594 208.453125 L 216.0625 208.453125 L 214.433594 216.320312 L 172.609375 216.320312 Z M 174.246094 208.453125 " fill-opacity="1" fill-rule="nonzero"/><path fill="#a5a6a8" d="M 257.757812 208.453125 L 261.695312 208.453125 L 260.054688 216.320312 L 213.667969 216.320312 L 215.269531 208.453125 L 246.035156 208.453125 L 245.101562 202.582031 C 245.019531 201.667969 244.578125 201.042969 243.769531 200.703125 C 243.382812 200.542969 242.585938 200.460938 241.371094 200.460938 L 221.84375 200.460938 L 223.480469 192.554688 L 243.824219 192.554688 C 245.015625 192.554688 246.070312 192.578125 246.992188 192.628906 C 247.910156 192.679688 248.703125 192.753906 249.371094 192.859375 C 250.5 193.003906 251.480469 193.234375 252.316406 193.554688 C 253.152344 193.875 253.859375 194.320312 254.433594 194.886719 C 255.015625 195.457031 255.472656 196.144531 255.804688 196.960938 C 256.140625 197.777344 256.363281 198.738281 256.480469 199.851562 Z M 244.007812 190.339844 L 232.285156 190.339844 L 233.742188 183.351562 L 245.464844 183.351562 Z M 244.007812 190.339844 " fill-opacity="1" fill-rule="nonzero"/><path fill="#cc8253" d="M 46.070312 252.761719 L 50.535156 231.289062 L 65.8125 231.289062 L 65.007812 235.09375 L 54.210938 235.09375 L 53.210938 239.984375 L 62.609375 239.984375 L 61.839844 243.675781 L 52.433594 243.675781 L 50.554688 252.761719 Z M 46.070312 252.761719 " fill-opacity="1" fill-rule="nonzero"/><path fill="#cc8253" d="M 64.921875 252.761719 L 69.382812 231.289062 L 73.875 231.289062 L 69.402344 252.761719 Z M 64.921875 252.761719 " fill-opacity="1" fill-rule="nonzero"/><path fill="#cc8253" d="M 84.363281 252.761719 L 88.835938 231.289062 L 93.316406 231.289062 L 91.453125 240.1875 L 101.539062 231.289062 L 107.269531 231.289062 L 96.863281 240.066406 L 103.371094 252.761719 L 97.492188 252.761719 L 92.992188 243.308594 L 90.34375 245.539062 L 88.851562 252.761719 Z M 84.363281 252.761719 " fill-opacity="1" fill-rule="nonzero"/><path fill="#cc8253" d="M 106.4375 252.761719 L 110.902344 231.289062 L 115.382812 231.289062 L 113.707031 239.324219 L 122.105469 239.324219 L 123.78125 231.289062 L 128.28125 231.289062 L 123.816406 252.761719 L 119.316406 252.761719 L 121.328125 243.039062 L 112.9375 243.039062 L 110.921875 252.761719 Z M 106.4375 252.761719 " fill-opacity="1" fill-rule="nonzero"/><path fill="#cc8253" d="M 128.792969 252.761719 L 133.257812 231.289062 L 137.746094 231.289062 L 133.273438 252.761719 Z M 128.792969 252.761719 " fill-opacity="1" fill-rule="nonzero"/><path fill="#cc8253" d="M 138.433594 252.761719 L 142.894531 231.289062 L 152.082031 231.289062 C 155.035156 231.289062 157.101562 232.15625 158.273438 233.890625 C 159 234.976562 159.367188 236.382812 159.367188 238.101562 C 159.367188 239.121094 159.242188 240.25 158.988281 241.492188 C 158.222656 245.175781 156.84375 247.976562 154.847656 249.890625 C 152.859375 251.804688 150.324219 252.761719 147.246094 252.761719 Z M 143.671875 249.066406 L 147.449219 249.066406 C 149.269531 249.066406 150.765625 248.453125 151.933594 247.222656 C 153.105469 245.988281 153.949219 244.140625 154.46875 241.675781 C 154.667969 240.726562 154.765625 239.871094 154.765625 239.113281 C 154.765625 238.113281 154.585938 237.289062 154.230469 236.640625 C 153.617188 235.535156 152.460938 234.984375 150.757812 234.984375 L 146.609375 234.984375 Z M 143.671875 249.066406 " fill-opacity="1" fill-rule="nonzero"/><path fill="#cc8253" d="M 164.953125 252.761719 L 160.769531 252.761719 L 165.242188 231.289062 L 171.804688 231.289062 L 172.175781 248.308594 L 179.574219 231.289062 L 186.054688 231.289062 L 181.59375 252.761719 L 177.40625 252.761719 L 181.15625 234.707031 L 173.378906 252.761719 L 168.980469 252.761719 L 168.777344 234.308594 Z M 164.953125 252.761719 " fill-opacity="1" fill-rule="nonzero"/><path fill="#cc8253" d="M 185.179688 252.761719 L 197.234375 231.289062 L 202.4375 231.289062 L 205.578125 252.761719 L 200.808594 252.761719 L 200.269531 248.390625 L 192.121094 248.390625 L 189.789062 252.761719 Z M 198.761719 236.066406 L 194.121094 244.707031 L 199.835938 244.707031 Z M 198.761719 236.066406 " fill-opacity="1" fill-rule="nonzero"/><path fill="#cc8253" d="M 214.042969 252.761719 L 217.707031 235.09375 L 211.207031 235.09375 L 212.015625 231.289062 L 229.476562 231.289062 L 228.671875 235.09375 L 222.191406 235.09375 L 218.53125 252.761719 Z M 214.042969 252.761719 " fill-opacity="1" fill-rule="nonzero"/><path fill="#cc8253" d="M 228.261719 252.761719 L 232.722656 231.289062 L 237.214844 231.289062 L 232.742188 252.761719 Z M 228.261719 252.761719 " fill-opacity="1" fill-rule="nonzero"/><path fill="#cc8253" d="M 238.214844 252.761719 L 242.6875 231.289062 L 247.167969 231.289062 L 245.308594 240.1875 L 255.390625 231.289062 L 261.121094 231.289062 L 250.714844 240.066406 L 257.226562 252.761719 L 251.34375 252.761719 L 246.84375 243.308594 L 244.195312 245.539062 L 242.707031 252.761719 Z M 238.214844 252.761719 " fill-opacity="1" fill-rule="nonzero"/></svg>